<mxfile host="Electron" modified="2023-05-29T20:18:17.428Z" agent="Mozilla/5.0 (Windows NT 10.0; Win64; x64) AppleWebKit/537.36 (KHTML, like Gecko) draw.io/21.2.8 Chrome/112.0.5615.165 Electron/24.2.0 Safari/537.36" etag="c4tfzb8Lwb5i8konNMad" version="21.2.8" type="device">
  <diagram name="Pagina-1" id="cRLQu5AnUjknGKx3u6Ge">
    <mxGraphModel dx="737" dy="1524" grid="1" gridSize="10" guides="1" tooltips="1" connect="1" arrows="1" fold="1" page="1" pageScale="1" pageWidth="827" pageHeight="1169" math="0" shadow="0">
      <root>
        <mxCell id="0" />
        <mxCell id="1" parent="0" />
        <mxCell id="eE56fRcTvq2fknQPrmKP-1" value="Login" style="rounded=1;whiteSpace=wrap;html=1;" parent="1" vertex="1">
          <mxGeometry x="110" y="122.5" width="100" height="45" as="geometry" />
        </mxCell>
        <mxCell id="eE56fRcTvq2fknQPrmKP-2" value="" style="ellipse;html=1;fillColor=#000000;strokeColor=#ff0000;" parent="1" vertex="1">
          <mxGeometry x="30" y="130" width="30" height="30" as="geometry" />
        </mxCell>
        <mxCell id="eE56fRcTvq2fknQPrmKP-3" value="" style="ellipse;html=1;shape=endState;fillColor=#000000;strokeColor=#ff0000;" parent="1" vertex="1">
          <mxGeometry x="940" y="130" width="30" height="30" as="geometry" />
        </mxCell>
        <mxCell id="eE56fRcTvq2fknQPrmKP-4" value="Logged In" style="rounded=1;whiteSpace=wrap;html=1;" parent="1" vertex="1">
          <mxGeometry x="280" y="220" width="100" height="45" as="geometry" />
        </mxCell>
        <mxCell id="eE56fRcTvq2fknQPrmKP-5" value="Logged Out" style="rounded=1;whiteSpace=wrap;html=1;" parent="1" vertex="1">
          <mxGeometry x="280" y="50" width="100" height="45" as="geometry" />
        </mxCell>
        <mxCell id="eE56fRcTvq2fknQPrmKP-11" value="" style="endArrow=open;endFill=1;endSize=12;html=1;rounded=0;exitX=0.5;exitY=0;exitDx=0;exitDy=0;entryX=0;entryY=0.5;entryDx=0;entryDy=0;" parent="1" source="eE56fRcTvq2fknQPrmKP-1" target="eE56fRcTvq2fknQPrmKP-5" edge="1">
          <mxGeometry width="160" relative="1" as="geometry">
            <mxPoint x="340" y="260" as="sourcePoint" />
            <mxPoint x="500" y="260" as="targetPoint" />
            <Array as="points">
              <mxPoint x="190" y="73" />
            </Array>
          </mxGeometry>
        </mxCell>
        <mxCell id="eE56fRcTvq2fknQPrmKP-12" value="" style="endArrow=open;endFill=1;endSize=12;html=1;rounded=0;exitX=0.5;exitY=1;exitDx=0;exitDy=0;entryX=0;entryY=0.5;entryDx=0;entryDy=0;" parent="1" source="eE56fRcTvq2fknQPrmKP-1" target="eE56fRcTvq2fknQPrmKP-4" edge="1">
          <mxGeometry width="160" relative="1" as="geometry">
            <mxPoint x="200" y="133" as="sourcePoint" />
            <mxPoint x="280" y="83" as="targetPoint" />
            <Array as="points">
              <mxPoint x="190" y="243" />
            </Array>
          </mxGeometry>
        </mxCell>
        <mxCell id="eE56fRcTvq2fknQPrmKP-14" value="" style="endArrow=open;endFill=1;endSize=12;html=1;rounded=0;exitX=1;exitY=0.5;exitDx=0;exitDy=0;entryX=0;entryY=0.5;entryDx=0;entryDy=0;" parent="1" source="eE56fRcTvq2fknQPrmKP-2" target="eE56fRcTvq2fknQPrmKP-1" edge="1">
          <mxGeometry width="160" relative="1" as="geometry">
            <mxPoint x="70" y="180" as="sourcePoint" />
            <mxPoint x="120" y="180" as="targetPoint" />
            <Array as="points" />
          </mxGeometry>
        </mxCell>
        <mxCell id="COBxpZL5J5qiwW7H6FFh-1" value="GuestLogin" style="rounded=1;whiteSpace=wrap;html=1;" vertex="1" parent="1">
          <mxGeometry x="280" y="122.5" width="100" height="45" as="geometry" />
        </mxCell>
        <mxCell id="COBxpZL5J5qiwW7H6FFh-2" value="" style="endArrow=open;endFill=1;endSize=12;html=1;rounded=0;exitX=1;exitY=0.5;exitDx=0;exitDy=0;entryX=0;entryY=0.5;entryDx=0;entryDy=0;" edge="1" parent="1" source="eE56fRcTvq2fknQPrmKP-1" target="COBxpZL5J5qiwW7H6FFh-1">
          <mxGeometry width="160" relative="1" as="geometry">
            <mxPoint x="380" y="253" as="sourcePoint" />
            <mxPoint x="430" y="253" as="targetPoint" />
            <Array as="points" />
          </mxGeometry>
        </mxCell>
        <mxCell id="COBxpZL5J5qiwW7H6FFh-21" value="PlayistPanel" style="rounded=1;whiteSpace=wrap;html=1;" vertex="1" parent="1">
          <mxGeometry x="740" y="280" width="100" height="45" as="geometry" />
        </mxCell>
        <mxCell id="COBxpZL5J5qiwW7H6FFh-30" value="GuestPanel" style="rounded=1;whiteSpace=wrap;html=1;" vertex="1" parent="1">
          <mxGeometry x="430" y="122.5" width="100" height="45" as="geometry" />
        </mxCell>
        <mxCell id="COBxpZL5J5qiwW7H6FFh-31" value="LoggedPanel" style="rounded=1;whiteSpace=wrap;html=1;" vertex="1" parent="1">
          <mxGeometry x="430" y="220" width="100" height="45" as="geometry" />
        </mxCell>
        <mxCell id="COBxpZL5J5qiwW7H6FFh-32" value="SongList" style="rounded=1;whiteSpace=wrap;html=1;" vertex="1" parent="1">
          <mxGeometry x="570" y="122.5" width="100" height="45" as="geometry" />
        </mxCell>
        <mxCell id="COBxpZL5J5qiwW7H6FFh-33" value="SongList" style="rounded=1;whiteSpace=wrap;html=1;" vertex="1" parent="1">
          <mxGeometry x="570" y="220" width="100" height="45" as="geometry" />
        </mxCell>
        <mxCell id="COBxpZL5J5qiwW7H6FFh-34" value="EmotionPanel" style="rounded=1;whiteSpace=wrap;html=1;" vertex="1" parent="1">
          <mxGeometry x="740" y="175" width="100" height="45" as="geometry" />
        </mxCell>
        <mxCell id="COBxpZL5J5qiwW7H6FFh-35" value="" style="endArrow=open;endFill=1;endSize=12;html=1;rounded=0;exitX=1;exitY=0.5;exitDx=0;exitDy=0;entryX=0;entryY=0.5;entryDx=0;entryDy=0;" edge="1" parent="1" source="COBxpZL5J5qiwW7H6FFh-32" target="eE56fRcTvq2fknQPrmKP-3">
          <mxGeometry width="160" relative="1" as="geometry">
            <mxPoint x="250" y="155" as="sourcePoint" />
            <mxPoint x="290" y="155" as="targetPoint" />
            <Array as="points" />
          </mxGeometry>
        </mxCell>
        <mxCell id="COBxpZL5J5qiwW7H6FFh-36" value="" style="endArrow=open;endFill=1;endSize=12;html=1;rounded=0;exitX=1;exitY=0.5;exitDx=0;exitDy=0;entryX=0.5;entryY=0;entryDx=0;entryDy=0;" edge="1" parent="1" source="eE56fRcTvq2fknQPrmKP-5" target="eE56fRcTvq2fknQPrmKP-3">
          <mxGeometry width="160" relative="1" as="geometry">
            <mxPoint x="680" y="155" as="sourcePoint" />
            <mxPoint x="950" y="155" as="targetPoint" />
            <Array as="points">
              <mxPoint x="955" y="73" />
            </Array>
          </mxGeometry>
        </mxCell>
        <mxCell id="COBxpZL5J5qiwW7H6FFh-37" value="" style="endArrow=open;endFill=1;endSize=12;html=1;rounded=0;exitX=0.5;exitY=1;exitDx=0;exitDy=0;entryX=0.5;entryY=1;entryDx=0;entryDy=0;" edge="1" parent="1" source="COBxpZL5J5qiwW7H6FFh-33" target="eE56fRcTvq2fknQPrmKP-3">
          <mxGeometry width="160" relative="1" as="geometry">
            <mxPoint x="680" y="155" as="sourcePoint" />
            <mxPoint x="950" y="155" as="targetPoint" />
            <Array as="points">
              <mxPoint x="620" y="380" />
              <mxPoint x="955" y="380" />
            </Array>
          </mxGeometry>
        </mxCell>
        <mxCell id="COBxpZL5J5qiwW7H6FFh-38" value="" style="endArrow=open;endFill=1;endSize=12;html=1;rounded=0;exitX=1;exitY=0.5;exitDx=0;exitDy=0;entryX=0;entryY=0.5;entryDx=0;entryDy=0;" edge="1" parent="1" source="COBxpZL5J5qiwW7H6FFh-1" target="COBxpZL5J5qiwW7H6FFh-30">
          <mxGeometry width="160" relative="1" as="geometry">
            <mxPoint x="250" y="155" as="sourcePoint" />
            <mxPoint x="290" y="155" as="targetPoint" />
            <Array as="points" />
          </mxGeometry>
        </mxCell>
        <mxCell id="COBxpZL5J5qiwW7H6FFh-39" value="" style="endArrow=open;endFill=1;endSize=12;html=1;rounded=0;exitX=1;exitY=0.5;exitDx=0;exitDy=0;" edge="1" parent="1" source="COBxpZL5J5qiwW7H6FFh-30" target="COBxpZL5J5qiwW7H6FFh-32">
          <mxGeometry width="160" relative="1" as="geometry">
            <mxPoint x="390" y="155" as="sourcePoint" />
            <mxPoint x="440" y="155" as="targetPoint" />
            <Array as="points" />
          </mxGeometry>
        </mxCell>
        <mxCell id="COBxpZL5J5qiwW7H6FFh-40" value="" style="endArrow=open;endFill=1;endSize=12;html=1;rounded=0;exitX=1;exitY=0.5;exitDx=0;exitDy=0;" edge="1" parent="1" source="eE56fRcTvq2fknQPrmKP-4" target="COBxpZL5J5qiwW7H6FFh-31">
          <mxGeometry width="160" relative="1" as="geometry">
            <mxPoint x="540" y="155" as="sourcePoint" />
            <mxPoint x="580" y="155" as="targetPoint" />
            <Array as="points" />
          </mxGeometry>
        </mxCell>
        <mxCell id="COBxpZL5J5qiwW7H6FFh-41" value="" style="endArrow=open;endFill=1;endSize=12;html=1;rounded=0;exitX=1;exitY=0.5;exitDx=0;exitDy=0;entryX=0;entryY=0.5;entryDx=0;entryDy=0;" edge="1" parent="1" source="COBxpZL5J5qiwW7H6FFh-31" target="COBxpZL5J5qiwW7H6FFh-33">
          <mxGeometry width="160" relative="1" as="geometry">
            <mxPoint x="390" y="253" as="sourcePoint" />
            <mxPoint x="440" y="253" as="targetPoint" />
            <Array as="points" />
          </mxGeometry>
        </mxCell>
        <mxCell id="COBxpZL5J5qiwW7H6FFh-42" value="RegisterPanel" style="rounded=1;whiteSpace=wrap;html=1;" vertex="1" parent="1">
          <mxGeometry x="90" y="-20" width="100" height="45" as="geometry" />
        </mxCell>
        <mxCell id="COBxpZL5J5qiwW7H6FFh-43" value="" style="endArrow=classic;startArrow=classic;html=1;rounded=0;entryX=0.485;entryY=1.009;entryDx=0;entryDy=0;exitX=0.287;exitY=-0.008;exitDx=0;exitDy=0;entryPerimeter=0;exitPerimeter=0;" edge="1" parent="1" source="eE56fRcTvq2fknQPrmKP-1" target="COBxpZL5J5qiwW7H6FFh-42">
          <mxGeometry width="50" height="50" relative="1" as="geometry">
            <mxPoint x="450" y="90" as="sourcePoint" />
            <mxPoint x="500" y="40" as="targetPoint" />
            <Array as="points" />
          </mxGeometry>
        </mxCell>
        <mxCell id="COBxpZL5J5qiwW7H6FFh-44" value="" style="endArrow=open;endFill=1;endSize=12;html=1;rounded=0;exitX=0.75;exitY=0;exitDx=0;exitDy=0;" edge="1" parent="1" source="COBxpZL5J5qiwW7H6FFh-33">
          <mxGeometry width="160" relative="1" as="geometry">
            <mxPoint x="540" y="155" as="sourcePoint" />
            <mxPoint x="740" y="200" as="targetPoint" />
            <Array as="points">
              <mxPoint x="645" y="200" />
            </Array>
          </mxGeometry>
        </mxCell>
        <mxCell id="COBxpZL5J5qiwW7H6FFh-45" value="" style="endArrow=open;endFill=1;endSize=12;html=1;rounded=0;exitX=0.75;exitY=1;exitDx=0;exitDy=0;entryX=-0.006;entryY=0.44;entryDx=0;entryDy=0;entryPerimeter=0;" edge="1" parent="1" source="COBxpZL5J5qiwW7H6FFh-33" target="COBxpZL5J5qiwW7H6FFh-21">
          <mxGeometry width="160" relative="1" as="geometry">
            <mxPoint x="655" y="230" as="sourcePoint" />
            <mxPoint x="750" y="210" as="targetPoint" />
            <Array as="points">
              <mxPoint x="645" y="300" />
            </Array>
          </mxGeometry>
        </mxCell>
      </root>
    </mxGraphModel>
  </diagram>
</mxfile>
